HIERARCHY
ROOT Hips
{
    OFFSET 0.000000 0.000000 0.000000
    CHANNELS 6 Xposition Yposition Zposition Zrotation Xrotation Yrotation
    JOINT Spine
    {
        OFFSET -0.000000 7.246840 0.000000
        CHANNELS 3 Zrotation Xrotation Yrotation
        JOINT Spine1
        {
            OFFSET -0.000000 20.289354 0.000000
            CHANNELS 3 Zrotation Xrotation Yrotation
            JOINT Neck
            {
                OFFSET -0.000000 20.206032 1.836912
                CHANNELS 3 Zrotation Xrotation Yrotation
                JOINT Head
                {
                    OFFSET -0.000000 12.372654 -1.767522
                    CHANNELS 3 Zrotation Xrotation Yrotation
                    End Site
                    {
                        OFFSET -0.000000 22.094025 0.000000
                    }
                }
            }
            JOINT LeftShoulder
            {
                OFFSET 3.465871 17.201674 -0.568930
                CHANNELS 3 Zrotation Xrotation Yrotation
                JOINT LeftArm
                {
                    OFFSET 14.070313 0.000000 0.000000
                    CHANNELS 3 Zrotation Xrotation Yrotation
                    JOINT LeftForeArm
                    {
                        OFFSET 26.549477 0.000000 0.000000
                        CHANNELS 3 Zrotation Xrotation Yrotation
                        JOINT LeftHand
                        {
                            OFFSET 18.880413 0.000000 0.000000
                            CHANNELS 3 Zrotation Xrotation Yrotation
                            End Site
                            {
                                OFFSET 13.256415 0.000000 0.000000
                            }
                        }
                    }
                }
            }
            JOINT RightShoulder
            {
                OFFSET -3.526370 17.201674 -0.568930
                CHANNELS 3 Zrotation Xrotation Yrotation
                JOINT RightArm
                {
                    OFFSET -14.070313 0.000000 0.000000
                    CHANNELS 3 Zrotation Xrotation Yrotation
                    JOINT RightForeArm
                    {
                        OFFSET -26.549477 0.000000 0.000000
                        CHANNELS 3 Zrotation Xrotation Yrotation
                        JOINT RightHand
                        {
                            OFFSET -18.880413 0.000000 0.000000
                            CHANNELS 3 Zrotation Xrotation Yrotation
                            End Site
                            {
                                OFFSET -13.256415 0.000000 0.000000
                            }
                        }
                    }
                }
            }
        }
    }
    JOINT LeftUpLeg
    {
        OFFSET 8.837609 0.000000 0.000000
        CHANNELS 3 Zrotation Xrotation Yrotation
        JOINT LeftLeg
        {
            OFFSET -0.000000 -41.345005 0.000000
            CHANNELS 3 Zrotation Xrotation Yrotation
            JOINT LeftFoot
            {
                OFFSET -0.000000 -35.500874 0.000000
                CHANNELS 3 Zrotation Xrotation Yrotation
                JOINT LeftToeBase
                {
                    OFFSET -0.000000 -5.744446 13.256415
                    CHANNELS 3 Zrotation Xrotation Yrotation
                    End Site
                    {
                        OFFSET -0.000000 0.000000 3.535044
                    }
                }
            }
        }
    }
    JOINT RightUpLeg
    {
        OFFSET -8.837609 0.000000 0.000000
        CHANNELS 3 Zrotation Xrotation Yrotation
        JOINT RightLeg
        {
            OFFSET -0.000000 -41.345005 0.000000
            CHANNELS 3 Zrotation Xrotation Yrotation
            JOINT RightFoot
            {
                OFFSET -0.000000 -35.500874 0.000000
                CHANNELS 3 Zrotation Xrotation Yrotation
                JOINT RightToeBase
                {
                    OFFSET -0.000000 -5.744446 13.256415
                    CHANNELS 3 Zrotation Xrotation Yrotation
                    End Site
                    {
                        OFFSET -0.000000 0.000000 3.535044
                    }
                }
            }
        }
    }
}
MOTION
Frames:    11
Frame Time:    0.010000
3.974070    82.444748    -51.046555    3.241299    2.354227    -3.277785    -2.747004    -13.898764    -1.122791    -3.465532    6.092345    -0.603468    10.795970    28.493189    -20.140245    3.140211    11.268655    -19.545414    8.779345    6.296965    7.177771    -87.239693    44.287300    -4.112294    5.870800    -18.194639    -19.189238    -33.119724    -17.223749    -0.086888    -13.414524    -5.538584    10.404162    30.700510    -25.695597    34.005970    -73.419022    -49.242268    63.960346    -18.908028    -0.022962    6.505230    -2.766050    5.661316    -1.440158    -2.137419    -8.087463    -2.283322    4.461190    0.309117    -1.058881    -1.612013    -1.276406    2.274067    -8.388491    3.919317    2.157837    8.250790    -8.523104    2.798460    1.706238    -0.701152    -4.757437    -0.911519    -1.697755    1.665314    
4.006503    82.446899    -51.124062    3.243014    2.389450    -3.250975    -2.897429    -13.725490    -1.228130    -2.864902    6.165489    -0.725038    9.158423    29.248714    -19.985899    4.912365    11.076844    -19.437983    8.392700    6.379699    7.384937    -87.110641    44.268963    -4.306589    5.824137    -18.194374    -19.214140    -33.031025    -17.213694    -0.143980    -13.264188    -5.344687    10.654181    31.523115    -25.880032    33.677109    -74.114662    -50.511463    65.366257    -19.404150    0.787349    6.436498    -2.784371    5.573493    -1.519169    -2.109564    -8.114667    -2.282158    4.427694    0.368647    -1.007089    -1.603995    -1.291662    2.262970    -8.407327    3.851826    2.290506    8.222843    -8.589277    2.599874    1.766421    -0.625539    -4.740921    -0.912685    -1.700571    1.667497    
4.041914    82.452065    -51.208336    3.235699    2.427243    -3.232300    -1.465391    -13.875319    -0.682082    -4.930311    6.721053    -0.214238    11.473988    28.647280    -20.468050    2.671447    11.277863    -19.804064    9.466703    5.911356    6.494971    -86.934662    44.516605    -4.086598    5.386713    -18.578989    -19.677866    -32.805172    -17.616417    -0.263962    -12.078574    -5.112437    10.129831    32.729469    -25.753536    33.747963    -74.806511    -51.926800    66.962021    -19.963169    1.705353    6.548043    -2.794953    5.465900    -1.547529    -2.112299    -8.097753    -2.254673    4.095314    0.458822    -1.048212    -1.627932    -1.525616    2.300039    -8.413460    3.745338    2.212708    8.215629    -8.565598    2.571593    1.808708    -0.589353    -4.696955    -0.924556    -1.672902    1.688661    
4.080066    82.457443    -51.297070    3.229306    2.452667    -3.226249    -1.317755    -13.709458    -0.661595    -4.752554    6.883212    -0.217359    11.358040    28.645163    -20.461113    2.312510    11.394343    -19.826887    9.349832    5.884326    6.527286    -86.835304    44.769741    -4.178455    5.313693    -18.753386    -19.842373    -32.675346    -17.774891    -0.342000    -11.693181    -4.827088    10.315935    33.748711    -25.913836    33.548054    -75.007202    -53.229721    68.738541    -20.782705    2.422387    6.942691    -2.803601    5.375643    -1.616091    -2.122514    -8.102140    -2.129166    4.117522    0.498684    -1.131831    -1.612838    -1.505383    2.278432    -8.422503    3.650087    2.171010    8.203312    -8.548308    2.598827    1.828799    -0.530497    -4.723163    -0.943714    -1.705844    1.724283    
4.126361    82.465904    -51.396839    3.237369    2.479753    -3.229728    -1.164367    -13.520783    -0.635930    -4.567333    7.055905    -0.216330    10.656653    28.968866    -20.431131    2.837813    11.225690    -19.823318    9.183197    5.774342    6.717925    -86.666328    45.100716    -4.323411    5.191339    -18.884958    -19.950359    -32.537945    -17.899748    -0.426597    -11.313498    -4.728899    10.591434    34.847847    -25.918770    33.128105    -75.047577    -54.523308    70.678482    -21.687994    3.264107    7.285980    -2.826967    5.259391    -1.658615    -2.119578    -8.081537    -2.137402    4.124596    0.536394    -1.117435    -1.632390    -1.492071    2.305859    -8.450119    3.536688    2.118430    8.191789    -8.521321    2.627473    1.867592    -0.472304    -4.715041    -0.927494    -2.017008    1.700571    
4.178373    82.477333    -51.513027    3.257124    2.524457    -3.233668    -1.090775    -13.324448    -0.618982    -4.219781    7.257448    -0.223860    11.710704    28.225653    -20.565269    0.415041    11.632587    -20.010361    9.068825    5.752843    6.768933    -86.525261    44.952431    -4.643069    4.864960    -18.785109    -19.995106    -32.181976    -17.817053    -0.559616    -10.958541    -4.513391    10.902154    36.036381    -26.156557    32.844814    -74.401520    -55.767632    73.212784    -22.597654    4.098442    7.881281    -2.862115    5.105069    -1.673850    -2.141613    -8.033514    -2.129170    4.444471    0.495804    -1.157927    -1.644654    -1.192902    2.318922    -8.476019    3.390325    2.004826    8.162004    -8.484609    2.637521    1.924910    -0.379121    -4.633875    -0.931772    -1.709704    1.702540    
4.233539    82.490311    -51.637123    3.295377    2.558800    -3.248410    -0.941556    -13.078868    -0.554123    -3.995685    7.432902    -0.186626    10.669767    28.688986    -20.523340    1.477144    11.205076    -19.998091    8.934562    5.768892    6.811877    -86.206612    45.418022    -4.971992    4.728489    -18.950605    -20.216202    -32.129429    -17.967249    -0.670788    -10.504203    -4.161587    11.202287    37.184540    -26.406631    32.666138    -73.396538    -57.012150    75.934998    -23.446198    4.659693    8.644645    -2.913814    4.952055    -1.693257    -2.180066    -7.977192    -2.056378    4.813479    0.710250    -1.075148    -1.387258    -1.503558    1.959770    -8.529113    3.239197    1.850321    7.999312    -8.339111    3.051859    2.116485    -0.445417    -4.976642    -0.937887    -2.006904    1.719430    
4.297660    82.506332    -51.777191    3.327245    2.614559    -3.274183    -0.721553    -12.814337    -0.464990    -3.806139    7.587347    -0.131662    10.513303    28.790070    -20.512533    1.162626    10.875863    -20.003067    8.844115    5.756132    6.890075    -85.965706    45.795609    -5.294396    4.640391    -18.996811    -20.366989    -32.057938    -17.989079    -0.795407    -10.018425    -3.840725    11.578237    38.388763    -26.707436    32.485222    -71.290253    -58.113182    79.879593    -24.124914    5.821526    8.837726    -2.988523    4.763640    -1.631826    -2.131216    -7.927044    -2.210530    4.745762    0.778645    -0.935346    -1.283814    -1.507401    1.813691    -8.579654    3.057391    1.736099    7.753836    -8.298308    3.693879    2.361287    -0.401578    -5.565267    -0.973567    -1.655241    1.777816    
4.370769    82.523537    -51.929390    3.377330    2.663676    -3.287896    -0.583312    -12.483657    -0.384754    -3.438846    7.723295    -0.088955    11.082972    27.997192    -20.664127    -0.728851    11.440013    -20.251871    8.656048    5.651609    6.974558    -85.796211    46.319836    -5.494412    4.587968    -19.165918    -20.562691    -32.058750    -18.102053    -1.009303    -9.593957    -3.625061    12.049259    39.468971    -26.801786    32.049465    -69.411690    -59.117264    83.414413    -24.974981    6.774274    9.281167    -3.079660    4.586038    -1.704683    -2.125124    -7.905575    -2.053693    4.727619    0.845090    -1.013944    -1.256874    -1.488145    1.775425    -8.645516    2.880616    1.581781    7.716347    -8.263845    3.758527    2.445735    -0.292657    -5.524068    -0.953778    -1.993813    1.748304    
4.448016    82.542221    -52.096401    3.430263    2.730971    -3.340297    -0.328874    -12.134532    -0.256336    -3.197642    7.842629    -0.002437    9.960753    28.275499    -20.547041    0.224325    11.116154    -20.197742    8.488354    5.747150    7.140046    -85.198318    47.273483    -6.084711    4.432267    -19.461199    -20.900839    -31.927616    -18.358677    -1.214530    -9.109456    -3.694352    12.631330    40.521080    -26.689501    31.270258    -66.886856    -59.954742    87.505241    -25.821329    7.727139    9.940611    -3.186823    4.366506    -1.564323    -2.095302    -7.846609    -2.228954    4.655893    0.910311    -0.955779    -1.268847    -1.661782    1.794254    -8.709790    2.668863    1.464798    7.687457    -8.243943    3.721395    2.523911    -0.210329    -5.423641    -0.975441    -1.944488    1.787015    
4.539063    82.561859    -52.278553    3.495151    2.785905    -3.374072    -0.052488    -11.685554    -0.115942    -2.923327    7.909824    0.091678    9.392985    28.182631    -20.549990    0.205665    10.992560    -20.277260    8.324181    5.752367    7.282229    -84.728485    47.471611    -6.605232    4.116830    -19.261499    -21.195633    -31.906185    -18.177013    -1.309577    -8.698314    -3.651132    13.166662    41.482235    -26.234636    30.428478    -64.362228    -60.587658    91.464317    -26.999414    8.750311    10.548747    -3.312844    4.149073    -1.557577    -2.085301    -7.790858    -2.124579    4.633187    0.964837    -1.050833    -1.264485    -1.638524    1.787830    -8.807372    2.493039    1.553330    7.563397    -8.330950    3.649230    2.655849    -0.037060    -5.495467    -1.009150    -1.936545    1.848600    
